<?xml version="1.0" standalone="no"?>
<!DOCTYPE svg PUBLIC "-//W3C//DTD SVG 20010904//EN"
 "http://www.w3.org/TR/2001/REC-SVG-20010904/DTD/svg10.dtd">
<svg version="1.0" xmlns="http://www.w3.org/2000/svg"
 width="216.000000pt" height="206.000000pt" viewBox="0 0 216.000000 206.000000"
 preserveAspectRatio="xMidYMid meet">
<metadata>
Created by potrace 1.10, written by Peter Selinger 2001-2011
</metadata>
<g transform="translate(0.000000,206.000000) scale(0.100000,-0.100000)"
fill="#000000" stroke="none">
<path d="M50 862 c0 -568 3 -862 10 -862 13 0 12 -34 11 540 -1 520 -10 1172
-17 1179 -2 2 -4 -383 -4 -857z"/>
<path d="M902 1615 l3 -30 227 -3 227 -2 3 -33 3 -32 60 4 c33 1 60 4 61 5 1
0 4 13 8 29 l6 27 -71 0 -71 0 4 32 3 32 -233 1 -233 0 3 -30z"/>
<path d="M770 1551 c0 -28 1 -29 63 -33 34 -3 65 -4 68 -2 3 2 4 17 1 34 -4
30 -5 30 -68 30 -64 0 -64 0 -64 -29z"/>
<path d="M2138 1473 c-9 -322 -8 -1473 1 -1473 8 0 11 238 11 790 0 435 -2
790 -4 790 -3 0 -6 -48 -8 -107z"/>
<path d="M707 1512 c-3 -4 -3 -19 0 -35 4 -22 11 -27 34 -27 25 0 29 4 29 29
0 21 -6 30 -22 35 -30 8 -36 7 -41 -2z"/>
<path d="M1513 1513 c-18 -3 -23 -11 -23 -34 0 -27 3 -29 35 -29 33 0 35 -2
35 -35 0 -32 2 -35 30 -35 32 0 32 0 34 -75 1 -49 2 -50 34 -53 l32 -3 0 -101
0 -100 27 7 c16 4 29 7 29 8 1 1 3 45 5 97 l4 95 -32 -3 -33 -4 0 71 0 70 -36
-6 -37 -6 7 36 c7 37 7 37 -29 37 -33 0 -35 2 -35 35 0 36 -2 37 -47 28z"/>
<path d="M642 1418 c3 -29 6 -33 33 -33 27 0 30 3 30 30 0 27 -4 30 -33 33
-32 3 -33 2 -30 -30z"/>
<path d="M1032 1418 c3 -30 6 -33 33 -30 36 4 32 1 37 32 3 22 -1 25 -35 28
-38 3 -38 3 -35 -30z"/>
<path d="M1127 1444 c-3 -3 2 -14 11 -25 16 -18 17 -18 23 -2 4 10 5 21 2 26
-5 8 -27 9 -36 1z"/>
<path d="M1299 1445 c-1 -3 -1 -17 -2 -32 -1 -26 2 -28 37 -25 l37 3 -3 -38
c-3 -35 -5 -38 -33 -38 -16 0 -31 -3 -32 -7 -2 -5 -3 -64 -3 -133 0 -104 2
-123 14 -119 12 4 13 12 5 32 -7 17 -6 27 1 32 7 4 8 18 4 35 -4 17 -2 30 6
35 9 6 9 12 0 30 -13 24 -2 40 28 40 7 0 10 5 7 10 -3 6 -1 10 5 10 6 0 8 -10
5 -23 -3 -12 -7 -63 -8 -112 l-2 -90 33 -3 32 -3 -2 168 c-3 160 -4 168 -23
168 -32 0 -46 14 -39 41 6 22 3 24 -30 24 -20 0 -36 -2 -37 -5z"/>
<path d="M1394 1442 c-6 -4 -4 -13 7 -24 15 -14 18 -15 23 -1 10 26 -7 41 -30
25z"/>
<path d="M577 1383 c-2 -4 -2 -36 1 -70 4 -62 5 -63 33 -63 29 0 29 0 29 65 0
49 -3 65 -14 65 -8 0 -21 3 -29 6 -8 3 -17 2 -20 -3z"/>
<path d="M1104 1376 c-3 -7 -3 -23 -2 -36 3 -23 0 -25 -36 -22 l-39 4 7 -47
c3 -26 6 -85 6 -131 0 -54 4 -84 11 -84 7 0 8 11 4 29 -3 16 -2 32 4 35 7 4 7
15 1 31 -6 16 -6 27 1 31 6 3 7 19 4 35 -4 17 -2 29 3 29 6 0 18 7 27 16 22
23 29 11 16 -27 -6 -18 -11 -67 -11 -110 0 -78 0 -79 26 -79 15 0 23 -4 19
-10 -4 -6 -14 -9 -23 -8 -11 2 -18 -5 -20 -19 -3 -20 1 -23 30 -23 l33 0 -2
197 -1 198 -27 1 c-15 1 -29 -4 -31 -10z"/>
<path d="M510 1185 l0 -65 -35 0 c-32 0 -35 -2 -35 -30 0 -17 5 -30 13 -30 6
0 22 -3 35 -6 20 -6 22 -3 22 30 0 35 1 36 36 36 33 0 36 2 30 23 -3 12 -6 41
-6 65 0 40 -1 42 -30 42 l-30 0 0 -65z"/>
<path d="M380 1025 c0 -33 -2 -35 -35 -35 l-35 0 0 -65 0 -65 35 0 c33 0 35
-2 35 -35 0 -32 3 -35 29 -35 24 0 29 5 33 30 5 36 3 40 -34 40 -28 0 -28 0
-28 66 l0 66 30 -4 c30 -5 34 0 30 37 -2 23 -17 35 -42 35 -14 0 -18 -8 -18
-35z"/>
<path d="M844 1051 c-2 -2 -4 -17 -4 -33 l0 -28 93 0 c52 0 96 2 99 5 3 3 3
16 1 30 -5 23 -9 24 -95 27 -49 2 -92 1 -94 -1z"/>
<path d="M1779 1053 c-16 -4 -29 -38 -22 -59 2 -6 17 -8 33 -6 l30 4 0 -95 c0
-100 3 -107 51 -107 17 0 19 8 19 100 l0 100 -35 0 c-33 0 -35 2 -35 35 0 35
-5 38 -41 28z"/>
<path d="M1457 1030 c6 -24 -24 -29 -33 -5 -5 11 -10 13 -19 5 -10 -8 -15 -8
-20 1 -6 8 -10 7 -16 -2 -21 -33 -10 -39 57 -36 65 2 67 3 70 30 2 22 -1 27
-21 27 -18 0 -22 -4 -18 -20z"/>
<path d="M1300 893 c0 -30 3 -33 30 -33 26 0 30 3 30 29 0 24 -5 29 -30 33
-28 4 -30 3 -30 -29z"/>
<path d="M645 910 c3 -5 17 -10 30 -10 13 0 27 5 30 10 4 6 -8 10 -30 10 -22
0 -34 -4 -30 -10z"/>
<path d="M470 790 c-20 -5 -25 -12 -25 -35 0 -28 2 -30 33 -27 31 3 32 2 32
-32 0 -34 -2 -36 -35 -36 -27 0 -35 -4 -35 -17 0 -26 12 -41 35 -43 37 -4 42
0 37 30 l-4 30 65 0 c64 0 65 0 69 30 3 17 2 32 0 35 -3 3 -34 5 -69 5 l-63 0
0 29 c0 35 -6 40 -40 31z"/>
<path d="M1628 725 l-3 -70 -32 3 c-31 3 -33 1 -33 -27 l0 -31 66 0 c48 0 65
3 61 13 -2 7 -20 11 -46 10 -24 -1 -39 2 -36 7 4 6 12 10 19 10 14 0 37 78 25
86 -19 11 -8 36 23 48 l31 13 -36 5 -36 4 -3 -71z"/>
<path d="M1757 793 c-3 -4 -3 -20 0 -36 4 -22 11 -27 34 -27 26 0 29 4 29 30
0 19 -5 30 -14 30 -8 0 -21 3 -29 6 -8 3 -17 2 -20 -3z"/>
<path d="M1690 695 c0 -32 2 -35 30 -35 28 0 30 3 30 35 0 32 -2 35 -30 35
-28 0 -30 -3 -30 -35z"/>
<path d="M689 653 c-1 -5 -2 -14 -3 -21 0 -7 -8 -17 -16 -22 -12 -8 -11 -10 8
-10 18 0 22 6 22 30 0 26 -8 43 -11 23z"/>
<path d="M1758 630 c-6 -37 -5 -38 32 -32 25 4 30 9 30 33 0 25 -4 29 -29 29
-24 0 -29 -5 -33 -30z"/>
<path d="M530 611 c0 -11 52 -19 76 -11 16 6 15 7 -7 13 -34 10 -69 9 -69 -2z"/>
<path d="M380 565 c0 -33 -2 -35 -35 -35 l-35 0 0 -65 0 -65 35 0 c34 0 35 -2
35 -36 0 -34 1 -36 27 -29 34 8 30 5 35 35 3 22 -1 25 -29 28 l-33 3 0 66 0
65 30 -4 c28 -4 30 -2 30 28 0 31 -13 44 -46 44 -9 0 -14 -11 -14 -35z"/>
<path d="M1497 594 c-2 -2 -2 -16 1 -32 3 -21 10 -28 27 -30 28 -2 39 11 30
37 -5 16 -48 35 -58 25z"/>
<path d="M1839 593 c-13 -3 -16 -17 -17 -59 0 -64 -2 -67 -39 -68 -16 -1 -28
-6 -27 -13 1 -7 2 -22 3 -33 1 -15 8 -20 31 -20 28 0 30 3 30 36 0 34 1 35 33
32 l32 -3 3 68 c3 71 1 74 -49 60z"/>
<path d="M828 583 c28 -2 52 -8 52 -14 0 -5 5 -9 10 -9 6 0 10 7 10 15 0 12
-13 15 -62 13 l-63 -2 53 -3z"/>
<path d="M580 551 c0 -25 -4 -32 -17 -30 -10 1 -27 0 -38 -1 -20 -1 -20 -1 0
-9 29 -12 55 -1 68 26 8 17 7 27 -1 35 -9 9 -12 4 -12 -21z"/>
<path d="M844 521 c-2 -2 -4 -15 -4 -28 0 -19 5 -23 30 -23 26 0 30 3 30 29 0
25 -4 29 -26 27 -14 0 -28 -3 -30 -5z"/>
<path d="M933 462 c-16 -2 -23 -10 -22 -25 1 -18 2 -18 6 -4 3 12 11 16 23 12
10 -3 21 -1 24 4 8 13 -4 18 -31 13z"/>
<path d="M1303 462 c-40 -2 -73 -6 -73 -11 0 -16 13 -20 32 -10 14 7 23 7 33
-1 7 -6 25 -8 39 -4 22 5 26 3 26 -15 0 -17 6 -21 35 -21 33 0 35 -2 35 -32
l0 -33 160 1 c88 1 163 3 166 6 3 3 2 17 -2 32 l-6 26 -158 0 -159 0 -3 32
c-3 35 -2 35 -125 30z"/>
<path d="M1108 453 c17 -2 47 -2 65 0 17 2 3 4 -33 4 -36 0 -50 -2 -32 -4z"/>
<path d="M1030 371 l0 -29 163 -4 c89 -2 165 -3 168 -1 3 1 4 16 1 32 l-4 30
-164 0 -164 1 0 -29z"/>
<path d="M446 308 c-3 -13 -6 -26 -6 -30 0 -5 135 -8 301 -8 270 0 301 2 295
16 -3 9 -6 22 -6 30 0 12 -46 14 -289 14 l-289 0 -6 -22z"/>
</g>
</svg>
